<svg xmlns="http://www.w3.org/2000/svg" width="1229" height="249.889" viewBox="0 0 370.222 77.573" class="looka-1j8o68f"><defs><linearGradient id="a"><stop stop-color="#ef4136" offset="0"/><stop stop-color="#fbb040" offset="1"/></linearGradient></defs><path d="m6.86 6.66-.82-1.84h2.4L15.62 20h-2.44l-.98-2.18H7.66q-1.28 0-2.3.24-.9.22-1.5.58-.54.32-.72.66l-.38.7H.4zm1.6 8.96h2.76l-3.26-6.3-3.3 7.14q.44-.38 1.34-.6 1.02-.24 2.46-.24" transform="translate(-2.044 -24.631)scale(5.11024)" fill="url(#a)"/><path d="m111.619 27.258-1.73-3.879h5.06l15.137 32.001h-5.144l-2.066-4.596h-9.571q-2.698 0-4.849.506-1.897.464-3.162 1.223-1.138.675-1.518 1.391l-.8 1.476H98zm3.373 18.889h5.818l-6.873-13.282-6.956 15.052q.927-.8 2.825-1.265 2.15-.505 5.186-.505m29.707-4.68V55.38h-4.554V23.927h4.554V36.83q1.686-.844 4.005-.844.844 0 4.09.38 4.553.548 6.156.548 2.445 0 4.258-.801V23.927h4.596V55.38h-4.596V40.75q-1.813.8-4.258.8-1.603 0-6.156-.547-3.246-.38-4.09-.38-2.319 0-4.005.844m63.395-7.716-10.752 12.86-10.667-12.86V55.38h-4.511V28.354l-3.668-4.427h5.945l12.86 15.431 13.027-15.43h5.945l-3.668 4.426V55.38h-4.511zm46.066 5.692q0-3.373-1.729-6.114-1.644-2.656-4.49-4.174t-6.177-1.518q-3.457 0-6.303 1.56t-4.448 4.259q-1.644 2.825-1.644 6.282 0 3.289 1.77 6.071 1.687 2.614 4.533 4.153t6.155 1.54 6.156-1.603 4.49-4.3q1.687-2.825 1.687-6.156m4.553.253q0 4.553-2.36 8.39-2.277 3.668-6.177 5.84t-8.412 2.17q-4.68 0-8.6-2.276-3.838-2.192-6.03-6.03-2.277-3.92-2.277-8.6 0-4.512 2.403-8.306 2.277-3.626 6.177-5.755t8.37-2.13q4.595 0 8.516 2.235 3.837 2.193 6.071 5.945 2.32 3.921 2.32 8.517m25.027 16.4q-4.427 0-7.61-1.538t-4.85-4.448-1.665-6.957V23.927h4.554v19.226q0 4.048 2.487 6.198t7.084 2.15 7.083-2.15 2.487-6.198V23.927h4.554v19.226q0 4.048-1.665 6.957t-4.849 4.448-7.61 1.539m51.59-10.288q0 3.078-1.856 5.481-1.813 2.277-4.996 3.542t-7.189 1.265q-3.668 0-7.125-1.708t-5.819-4.743l3.29-3.078q4.089 4.933 9.654 4.933 2.446 0 4.47-.59 2.234-.675 3.457-1.897 1.391-1.35 1.391-3.205 0-2.234-1.391-3.373-1.18-.97-3.5-1.265-1.349-.168-4.427-.168-5.65 0-8.622-2.066t-2.972-6.072q0-2.53 1.496-4.806t4.111-3.626Q318.002 23 321.29 23q3.71 0 6.704 1.138 3.204 1.223 5.945 3.837l-2.867 3.373q-2.572-2.066-4.68-2.888t-5.102-.823q-1.728 0-3.225.717t-2.382 1.919-.886 2.55q0 3.626 6.704 3.626 5.355 0 8.475 1.096 2.95 1.055 4.216 3.205 1.138 1.897 1.138 5.06m15.499-3.036v8.01h19.394v4.596h-23.99V23.927h22.135v4.638h-17.54v9.529q1.308-.76 2.91-1.012 1.18-.211 3.036-.211h6.872v4.68h-6.872q-1.729 0-3.036.21-1.602.296-2.91 1.013" fill="#fff"/></svg>