<svg width="100%" height="100%" id="svg" viewBox="0 0 1440 690" xmlns="http://www.w3.org/2000/svg" class="transition duration-300 ease-in-out delay-150">
  <defs>
    <linearGradient id="gradient" x1="0%" y1="50%" x2="100%" y2="50%">
      <stop offset="5%" stop-color="#1e293b"></stop>
      <stop offset="95%" stop-color="#ea580c"></stop>
    </linearGradient>
  </defs>
  <path d="M 0,700 L 0,356 C 83.67464114832532,333.9617224880383 167.34928229665064,311.92344497607655 259,320 C 350.65071770334936,328.07655502392345 450.27751196172255,366.26794258373207 539,332 C 627.7224880382774,297.73205741626793 705.5406698564593,191.00478468899522 819,142 C 932.4593301435407,92.99521531100478 1081.5598086124403,101.71291866028709 1191,97 C 1300.4401913875597,92.28708133971291 1370.22009569378,74.14354066985646 1440,56 L 1440,700 L 0,700 Z" stroke="none" stroke-width="0" fill="url(#gradient)" fill-opacity="0.4" class="transition-all duration-300 ease-in-out delay-150 path-0" ></path>
  <defs>
    <linearGradient id="gradient" x1="0%" y1="50%" x2="100%" y2="50%">
      <stop offset="5%" stop-color="#1e293b"></stop>
      <stop offset="95%" stop-color="#ea580c"></stop>
    </linearGradient>
  </defs>
  <path d="M 0,700 L 0,531 C 99.35885167464116,519.3732057416269 198.71770334928232,507.7464114832536 285,499 C 371.2822966507177,490.2535885167464 444.4880382775119,484.3875598086124 549,455 C 653.5119617224881,425.6124401913876 789.33014354067,372.70334928229664 881,349 C 972.66985645933,325.29665071770336 1020.1913875598086,330.79904306220095 1106,316 C 1191.8086124401914,301.20095693779905 1315.9043062200958,266.1004784688995 1440,231 L 1440,700 L 0,700 Z" stroke="none" stroke-width="0" fill="url(#gradient)" fill-opacity="0.53" class="transition-all duration-300 ease-in-out delay-150 path-1" ></path>
  <defs>
    <linearGradient id="gradient" x1="0%" y1="50%" x2="100%" y2="50%">
      <stop offset="5%" stop-color="#1e293b"></stop>
      <stop offset="95%" stop-color="#ea580c"></stop>
    </linearGradient>
  </defs>
  <path d="M 0,700 L 0,706 C 67.4736842105263,700.1052631578948 134.9473684210526,694.2105263157895 246,699 C 357.0526315789474,703.7894736842105 511.68421052631584,719.2631578947368 621,690 C 730.3157894736842,660.7368421052632 794.315789473684,586.7368421052632 863,552 C 931.684210526316,517.2631578947368 1005.0526315789475,521.7894736842105 1102,504 C 1198.9473684210525,486.2105263157895 1319.4736842105262,446.10526315789474 1440,406 L 1440,700 L 0,700 Z" stroke="none" stroke-width="0" fill="url(#gradient)" fill-opacity="1" class="transition-all duration-300 ease-in-out delay-150 path-2"></path>
</svg>